<?xml version="1.0" encoding="UTF-8"?>
<svg version="1.1" xmlns="http://www.w3.org/2000/svg" width="62" height="74">
<path d="M0 0 C20.46 0 40.92 0 62 0 C62 24.42 62 48.84 62 74 C41.54 74 21.08 74 0 74 C0 49.58 0 25.16 0 0 Z " fill="#FEFEFE" transform="translate(0,0)"/>
<path d="M0 0 C0.90105469 0.00902344 1.80210938 0.01804687 2.73046875 0.02734375 C3.41753906 0.03894531 4.10460937 0.05054687 4.8125 0.0625 C5.25866681 7.02765961 5.51175348 11.67217983 0.8125 17.0625 C0.1525 17.7225 -0.5075 18.3825 -1.1875 19.0625 C-1.27 20.155625 -1.3525 21.24875 -1.4375 22.375 C-2.45787413 27.39183948 -3.99064869 28.26459913 -8.1875 31.0625 C-10.5 31.9375 -10.5 31.9375 -12.1875 32.0625 C-13.1875 31.0625 -13.1875 31.0625 -13.25 27.5 C-13.229375 26.365625 -13.20875 25.23125 -13.1875 24.0625 C-14.8375 23.7325 -16.4875 23.4025 -18.1875 23.0625 C-18.5175 21.4125 -18.8475 19.7625 -19.1875 18.0625 C-21.4975 18.0625 -23.8075 18.0625 -26.1875 18.0625 C-26.1875 13.21482978 -25.38393538 11.6584898 -22.1875 8.0625 C-20.2032512 7.8064679 -18.21354741 7.55807754 -16.21484375 7.46875 C-13.03254116 6.83106316 -11.53861377 4.85351241 -9.51171875 2.4375 C-6.82009988 -0.35733729 -3.62330974 -0.04705597 0 0 Z " fill="#3B66E3" transform="translate(50.1875,16.9375)"/>
<path d="M0 0 C1.98 0.495 1.98 0.495 4 1 C3.67 2.32 3.34 3.64 3 5 C1.68 4.67 0.36 4.34 -1 4 C-0.67 2.68 -0.34 1.36 0 0 Z " fill="#E6EBFB" transform="translate(46,22)"/>
</svg>
